arm26_states
version=1
nRows=38
nColumns=17
inDegrees=yes

# SIMM Motion File Header:
name arm26_states
datacolumns 17
datarows 38
otherdata 1
range 0.00000000 0.01635521
endheader
time	/jointset/r_shoulder/r_shoulder_elev/value	/jointset/r_shoulder/r_shoulder_elev/speed	/jointset/r_elbow/r_elbow_flex/value	/jointset/r_elbow/r_elbow_flex/speed	/forceset/TRIlong/activation	/forceset/TRIlong/fiber_length	/forceset/TRIlat/activation	/forceset/TRIlat/fiber_length	/forceset/TRImed/activation	/forceset/TRImed/fiber_length	/forceset/BIClong/activation	/forceset/BIClong/fiber_length	/forceset/BICshort/activation	/forceset/BICshort/fiber_length	/forceset/BRA/activation	/forceset/BRA/fiber_length
      0.00000000	     30.00000000	      0.00000000	     20.00000000	      0.00000000	      0.05000000	      0.10000000	      0.05000000	      0.10000000	      0.05000000	      0.10000000	      0.05000000	      0.10000000	      0.05000000	      0.10000000	      0.05000000	      0.10000000
      0.00000993	     29.99999651	     -0.70332218	     19.99999827	     -0.23738602	      0.04999287	      0.11557835	      0.04999287	      0.09999675	      0.04999287	      0.09999675	      0.04999287	      0.10358010	      0.04999287	      0.10825771	      0.04999287	      0.09998913
      0.00001985	     29.99998612	     -1.38382178	     19.99999690	      0.02370826	      0.04998573	      0.12658513	      0.04998573	      0.09999351	      0.04998573	      0.09999351	      0.04998573	      0.10672477	      0.04998573	      0.11475436	      0.04998573	      0.09997828
      0.00003404	     29.99996000	     -2.28276142	     20.00000274	      0.86776611	      0.04997554	      0.13772869	      0.04997554	      0.09998886	      0.04997554	      0.09998886	      0.04997554	      0.11059497	      0.04997554	      0.12192621	      0.04997554	      0.09996278
      0.00005431	     29.99990211	     -3.39501922	     20.00003648	      2.50876297	      0.04996098	      0.14788348	      0.04996098	      0.09998223	      0.04996098	      0.09998223	      0.04996098	      0.11510101	      0.04996098	      0.12922382	      0.04996098	      0.09994067
      0.00007458	     29.99982373	     -4.30689549	     20.00010505	      4.24880680	      0.04994643	      0.15386739	      0.04994643	      0.09997560	      0.04994643	      0.09997560	      0.04994643	      0.11866037	      0.04994643	      0.13419114	      0.04994643	      0.09991861
      0.00009485	     29.99972874	     -5.03757239	     20.00020780	      5.85662125	      0.04993188	      0.15734841	      0.04993188	      0.09996897	      0.04993188	      0.09996897	      0.04993188	      0.12147893	      0.04993188	      0.13759233	      0.04993188	      0.09989658
      0.00012113	     29.99958636	     -5.75928980	     20.00038555	      7.60151699	      0.04991302	      0.15974755	      0.04991302	      0.09996037	      0.04991302	      0.09996037	      0.04991302	      0.12428006	      0.04991302	      0.14045936	      0.04991302	      0.09986809
      0.00014741	     29.99942775	     -6.28267642	     20.00060381	      8.94492135	      0.04989418	      0.16089265	      0.04989418	      0.09995178	      0.04989418	      0.09995178	      0.04989418	      0.12634789	      0.04989418	      0.14221004	      0.04989418	      0.09983967
      0.00018345	     29.99919181	     -6.77451759	     20.00095123	     10.24188042	      0.04986834	      0.16155349	      0.04986834	      0.09993999	      0.04986834	      0.09993999	      0.04986834	      0.12832628	      0.04986834	      0.14355402	      0.04986834	      0.09980081
      0.00021949	     29.99894147	     -7.09536218	     20.00133648	     11.07446503	      0.04984252	      0.16182617	      0.04984252	      0.09992820	      0.04984252	      0.09992820	      0.04984252	      0.12961967	      0.04984252	      0.14423263	      0.04984252	      0.09976209
      0.00025553	     29.99868152	     -7.31882802	     20.00174611	     11.62219634	      0.04981672	      0.16196754	      0.04981672	      0.09991642	      0.04981672	      0.09991642	      0.04981672	      0.13046150	      0.04981672	      0.14460234	      0.04981672	      0.09972349
      0.00031199	     29.99826082	     -7.57068773	     20.00241924	     12.18009520	      0.04977633	      0.16207862	      0.04977633	      0.09989796	      0.04977633	      0.09989796	      0.04977633	      0.13123131	      0.04977633	      0.14493308	      0.04977633	      0.09966329
      0.00038064	     29.99773279	     -7.80221145	     20.00327180	     12.62828636	      0.04972726	      0.16213647	      0.04972726	      0.09987551	      0.04972726	      0.09987551	      0.04972726	      0.13173961	      0.04972726	      0.14515237	      0.04972726	      0.09959051
      0.00046696	     29.99704863	     -8.04272906	     20.00438036	     13.03625050	      0.04966564	      0.16216426	      0.04966564	      0.09984729	      0.04966564	      0.09984729	      0.04966564	      0.13209936	      0.04966564	      0.14529910	      0.04966564	      0.09949966
      0.00059822	     29.99597165	     -8.36086617	     20.00612383	     13.50953801	      0.04957211	      0.16218381	      0.04957211	      0.09980439	      0.04957211	      0.09980439	      0.04957211	      0.13238454	      0.04957211	      0.14540192	      0.04957211	      0.09936288
      0.00084247	     29.99386313	     -8.89768396	     20.00951291	     14.22093623	      0.04939859	      0.16220617	      0.04939859	      0.09972458	      0.04939859	      0.09972458	      0.04939859	      0.13259257	      0.04939859	      0.14546396	      0.04939859	      0.09911265
      0.00108673	     29.99162693	     -9.41064876	     20.01306554	     14.86295994	      0.04922576	      0.16222197	      0.04922576	      0.09964481	      0.04922576	      0.09964481	      0.04922576	      0.13265949	      0.04922576	      0.14549434	      0.04922576	      0.09886780
      0.00148802	     29.98768493	    -10.23240444	     20.01923262	     15.86467249	      0.04894329	      0.16224156	      0.04894329	      0.09951383	      0.04894329	      0.09951383	      0.04894329	      0.13271001	      0.04894329	      0.14552848	      0.04894329	      0.09847663
      0.00211251	     29.98090383	    -11.47914864	     20.02960719	     17.34799179	      0.04850734	      0.16226407	      0.04850734	      0.09931019	      0.04850734	      0.09931019	      0.04850734	      0.13275976	      0.04850734	      0.14556583	      0.04850734	      0.09789351
      0.00316336	     29.96776510	    -13.51543425	     20.04908748	     19.70103137	      0.04778359	      0.16229120	      0.04778359	      0.09896804	      0.04778359	      0.09896804	      0.04778359	      0.13281737	      0.04778359	      0.14560963	      0.04778359	      0.09697549
      0.00473470	     29.94420468	    -16.45342346	     20.08264744	     22.96955788	      0.04672392	      0.16231956	      0.04672392	      0.09845763	      0.04672392	      0.09845763	      0.04672392	      0.13287878	      0.04672392	      0.14565409	      0.04672392	      0.09572946
      0.00693817	     29.90356312	    -20.40580679	     20.13794829	     27.15394309	      0.04528211	      0.16234723	      0.04528211	      0.09774423	      0.04528211	      0.09774423	      0.04528211	      0.13294229	      0.04528211	      0.14569481	      0.04528211	      0.09419014
      0.00983197	     29.83729156	    -25.35430033	     20.22377847	     32.06320156	      0.04346365	      0.16237238	      0.04346365	      0.09681137	      0.04346365	      0.09681137	      0.04346365	      0.13300567	      0.04346365	      0.14572651	      0.04346365	      0.09245638
      0.01345383	     29.73473827	    -31.21889099	     20.34983395	     37.40601975	      0.04130142	      0.16239356	      0.04130142	      0.09564997	      0.04130142	      0.09564997	      0.04130142	      0.13306767	      0.04130142	      0.14574423	      0.04130142	      0.09063657
      0.01389342	     29.72086317	    -31.90804434	     20.36640803	     37.99937661	      0.04104722	      0.16239555	      0.04104722	      0.09550946	      0.04104722	      0.09550946	      0.04104722	      0.13307432	      0.04104722	      0.14574511	      0.04104722	      0.09043751
      0.01609136	     29.64699931	    -35.28499531	     20.45305570	     40.79946536	      0.03980201	      0.16240390	      0.03980201	      0.09480831	      0.03980201	      0.09480831	      0.03980201	      0.13310540	      0.03980201	      0.14574576	      0.03980201	      0.08950314
      0.01614446	     29.64512340	    -35.36521412	     20.45522404	     40.86380871	      0.03977244	      0.16240408	      0.03977244	      0.09479140	      0.03977244	      0.09479140	      0.03977244	      0.13310611	      0.03977244	      0.14574567	      0.03977244	      0.08948175
      0.01617101	     29.64418384	    -35.40530018	     20.45630948	     40.89592430	      0.03975767	      0.16240416	      0.03975767	      0.09478295	      0.03975767	      0.09478295	      0.03975767	      0.13310647	      0.03975767	      0.14574563	      0.03975767	      0.08947107
      0.01630377	     29.63947013	    -35.60549802	     20.46174948	     41.05594416	      0.03968390	      0.16240458	      0.03968390	      0.09474068	      0.03968390	      0.09474068	      0.03968390	      0.13310824	      0.03968390	      0.14574537	      0.03968390	      0.08941789
      0.01631244	     29.63916159	    -35.61854920	     20.46210522	     41.06635460	      0.03967909	      0.16240461	      0.03967909	      0.09473792	      0.03967909	      0.09473792	      0.03967909	      0.13310835	      0.03967909	      0.14574536	      0.03967909	      0.08941443
      0.01631873	     29.63893750	    -35.62802421	     20.46236357	     41.07391082	      0.03967560	      0.16240462	      0.03967560	      0.09473592	      0.03967560	      0.09473592	      0.03967560	      0.13310843	      0.03967560	      0.14574534	      0.03967560	      0.08941192
      0.01635018	     29.63781618	    -35.67538633	     20.46365603	     41.11166088	      0.03965815	      0.16240472	      0.03965815	      0.09472590	      0.03965815	      0.09472590	      0.03965815	      0.13310885	      0.03965815	      0.14574528	      0.03965815	      0.08939938
      0.01635259	     29.63773029	    -35.67901039	     20.46375500	     41.11454801	      0.03965681	      0.16240473	      0.03965681	      0.09472514	      0.03965681	      0.09472514	      0.03965681	      0.13310888	      0.03965681	      0.14574527	      0.03965681	      0.08939842
      0.01635457	     29.63765958	    -35.68199391	     20.46383649	     41.11692471	      0.03965571	      0.16240474	      0.03965571	      0.09472451	      0.03965571	      0.09472451	      0.03965571	      0.13310891	      0.03965571	      0.14574527	      0.03965571	      0.08939763
      0.01635491	     29.63764733	    -35.68251061	     20.46385060	     41.11733631	      0.03965552	      0.16240474	      0.03965552	      0.09472440	      0.03965552	      0.09472440	      0.03965552	      0.13310891	      0.03965552	      0.14574527	      0.03965552	      0.08939749
      0.01635512	     29.63763981	    -35.68282806	     20.46385927	     41.11758918	      0.03965541	      0.16240474	      0.03965541	      0.09472433	      0.03965541	      0.09472433	      0.03965541	      0.13310892	      0.03965541	      0.14574527	      0.03965541	      0.08939741
      0.01635521	     29.63763685	    -35.68295287	     20.46386268	     41.11768860	      0.03965536	      0.16240474	      0.03965536	      0.09472430	      0.03965536	      0.09472430	      0.03965536	      0.13310892	      0.03965536	      0.14574527	      0.03965536	      0.08939737
